<svg width="256" height="256" xmlns="http://www.w3.org/2000/svg" xmlns:svg="http://www.w3.org/2000/svg">
 <!-- Created with Method Draw - http://github.com/duopixel/Method-Draw/ -->
 <g>
  <title>Layer 1</title>
  <circle stroke-width="0" stroke="#00ffff" r="126" cy="128" cx="128" fill="#005fbf" id="lightbox"/>
  <circle stroke-width="0" stroke="#00ff00" r="50" cy="81.25" cx="172.75" fill="#999999" id="ball_shade"/>
  <path d="m125.79755,31.04755a1,1 0 0 0 100,0" fill="#ffffff" transform="rotate(179.96205139160156 175.79754638671875,56.04754638671876) " id="balltop"/>
  <path d="m125.79755,81.04755a1,1 0 0 0 100,0" fill="#ff0000" id="ballbott"/>
  <path transform="rotate(179.62564086914062 110.51387786865234,134.35888671874997) " d="m15.60115,106.88387q0,-13.65165 11.12259,-23.31082q11.12259,-9.65918 26.84251,-9.65918l107.56776,0q18.29047,0 31.29154,11.29051q13.00106,11.29051 13.00106,27.1745q0,11.33344 -7.01959,20.73505q-7.01959,9.4016 -18.48821,14.03801q0.19773,2.40406 0.19773,3.69195q0,18.20219 -14.83011,31.0811q-14.83011,12.87891 -35.79,12.87891q-15.62106,0 -28.32552,-7.55563q-12.70446,-7.55563 -18.53764,-19.74766q-6.92072,5.32328 -16.41199,5.32328q-10.47995,0 -17.89501,-6.43945q-7.41506,-6.43945 -7.41506,-15.54055q0,-6.43945 4.05357,-11.8486q-12.7539,-2.57578 -21.05876,-11.54809q-8.30486,-8.9723 -8.30486,-20.56333l0,-0.00001l-0.00001,0.00001z" fill="#999999" id="cloud_shade"/>
  <path id="cloud_front" transform="rotate(179.62564086914062 113.83847045898438,130.77267456054685) " d="m18.92574,103.29765q0,-13.65165 11.12259,-23.31082q11.12259,-9.65918 26.84251,-9.65918l107.56776,0q18.29047,0 31.29154,11.29051q13.00106,11.29051 13.00106,27.1745q0,11.33344 -7.01959,20.73505q-7.01959,9.4016 -18.48821,14.03801q0.19773,2.40406 0.19773,3.69195q0,18.20219 -14.83011,31.0811q-14.83011,12.87891 -35.79,12.87891q-15.62106,0 -28.32552,-7.55563q-12.70446,-7.55563 -18.53764,-19.74766q-6.92072,5.32328 -16.41199,5.32328q-10.47995,0 -17.89501,-6.43945q-7.41506,-6.43945 -7.41506,-15.54055q0,-6.43945 4.05357,-11.8486q-12.7539,-2.57578 -21.05876,-11.54809q-8.30486,-8.9723 -8.30486,-20.56333l0,-0.00001l-0.00001,0.00001z" fill="#e5e5e5"/>
 </g>
</svg>
